<svg width="54" height="38" viewBox="0 0 54 38" fill="none" xmlns="http://www.w3.org/2000/svg">
<mask id="path-1-inside-1_6092_46546" fill="white">
<path fill-rule="evenodd" clip-rule="evenodd" d="M27.0504 8.23756C27.6008 8.28847 28.1091 8.55994 28.4578 8.9926L39.4267 20.0722C41.2079 21.8707 40.1787 23.2917 37.8345 23.1008H27.0504L33.52 29.8241H47.2952C51.513 30.0107 54.8906 26.0361 50.6686 21.964L31.4573 2.65112C29.8567 1.04348 28.4536 0 27.0504 0C25.6473 0 24.2358 1.04348 22.6436 2.65112L3.43647 21.9598C-0.785557 26.0361 2.59207 29.9937 6.8099 29.8198H20.5725L27.042 23.0966H16.2916C13.9474 23.2874 12.9182 21.8622 14.6994 20.0679L25.6683 8.9926C26.0212 8.55994 26.5253 8.29271 27.0756 8.23756"/>
</mask>
<path d="M28.4578 8.9926L27.2899 9.93385L27.3379 9.99349L27.3918 10.0479L28.4578 8.9926ZM39.4267 20.0722L38.3607 21.1275L38.3609 21.1277L39.4267 20.0722ZM37.8345 23.1008L37.9562 21.6058L37.8955 21.6008H37.8345V23.1008ZM27.0504 23.1008V21.6008H23.5253L25.9696 24.1409L27.0504 23.1008ZM33.52 29.8241L32.4392 30.8641L32.8817 31.3241H33.52V29.8241ZM47.2952 29.8241L47.3615 28.3255L47.3284 28.3241H47.2952V29.8241ZM50.6686 21.964L49.6052 23.0219L49.6161 23.0329L49.6273 23.0437L50.6686 21.964ZM31.4573 2.65112L32.5208 1.59326L32.5203 1.59279L31.4573 2.65112ZM22.6436 2.65112L23.707 3.70898L23.7093 3.70665L22.6436 2.65112ZM3.43647 21.9598L4.47836 23.0389L4.48925 23.0284L4.49993 23.0176L3.43647 21.9598ZM6.8099 29.8198V28.3198H6.77899L6.7481 28.3211L6.8099 29.8198ZM20.5725 29.8198V31.3198H21.2107L21.6533 30.8599L20.5725 29.8198ZM27.042 23.0966L28.1229 24.1366L30.5671 21.5966H27.042V23.0966ZM16.2916 23.0966V21.5966H16.2306L16.1699 21.6015L16.2916 23.0966ZM14.6994 20.0679L15.764 21.1247L15.7652 21.1235L14.6994 20.0679ZM25.6683 8.9926L26.7341 10.0481L26.785 9.99673L26.8307 9.94067L25.6683 8.9926ZM26.9123 9.73119C27.0597 9.74483 27.1962 9.81768 27.2899 9.93385L29.6257 8.05136C29.022 7.30221 28.1418 6.8321 27.1886 6.74394L26.9123 9.73119ZM27.3918 10.0479L38.3607 21.1275L40.4926 19.0168L29.5238 7.93728L27.3918 10.0479ZM38.3609 21.1277C38.6985 21.4686 38.8009 21.6922 38.8248 21.7703C38.8348 21.8029 38.8252 21.7901 38.8294 21.7416C38.8339 21.6895 38.8518 21.6278 38.8852 21.5711C38.9525 21.4569 39.0024 21.486 38.8429 21.5398C38.6846 21.5933 38.3944 21.6414 37.9562 21.6058L37.7127 24.5959C39.0555 24.7052 40.6903 24.4174 41.47 23.0939C42.3393 21.6183 41.5218 20.056 40.4924 19.0166L38.3609 21.1277ZM37.8345 21.6008H27.0504V24.6008H37.8345V21.6008ZM25.9696 24.1409L32.4392 30.8641L34.6009 28.784L28.1313 22.0607L25.9696 24.1409ZM33.52 31.3241H47.2952V28.3241H33.52V31.3241ZM47.2289 31.3226C49.7734 31.4352 52.2696 30.3031 53.4498 28.2343C54.053 27.1769 54.2741 25.9229 53.9795 24.6083C53.689 23.3118 52.9206 22.052 51.7099 20.8844L49.6273 23.0437C50.5276 23.912 50.9203 24.6761 51.0521 25.2643C51.1799 25.8345 51.0846 26.326 50.8439 26.7478C50.3363 27.6377 49.0348 28.3996 47.3615 28.3255L47.2289 31.3226ZM51.7321 20.9061L32.5208 1.59326L30.3939 3.70898L49.6052 23.0219L51.7321 20.9061ZM32.5203 1.59279C31.6916 0.760444 30.8494 0.00677751 29.9847 -0.543061C29.1157 -1.09566 28.1343 -1.5 27.0504 -1.5V1.5C27.3697 1.5 27.7914 1.6174 28.3749 1.98845C28.9628 2.36226 29.6224 2.93416 30.3943 3.70945L32.5203 1.59279ZM27.0504 -1.5C25.9673 -1.5 24.9842 -1.09624 24.1138 -0.543587C23.2471 0.00674431 22.4043 0.761057 21.5778 1.5956L23.7093 3.70665C24.475 2.93355 25.134 2.3623 25.722 1.98898C26.3062 1.61798 26.7304 1.5 27.0504 1.5V-1.5ZM21.5801 1.59326L2.37302 20.9019L4.49993 23.0176L23.707 3.70898L21.5801 1.59326ZM2.39459 20.8807C1.18459 22.0489 0.416224 23.3081 0.125629 24.6038C-0.169091 25.9179 0.0521319 27.171 0.655784 28.2277C1.83625 30.2941 4.33138 31.4233 6.8717 31.3185L6.7481 28.3211C5.07059 28.3903 3.76799 27.6276 3.26069 26.7396C3.02046 26.3191 2.9253 25.8293 3.05291 25.2603C3.18465 24.6729 3.57734 23.9088 4.47836 23.0389L2.39459 20.8807ZM6.8099 31.3198H20.5725V28.3198H6.8099V31.3198ZM21.6533 30.8599L28.1229 24.1366L25.9612 22.0565L19.4916 28.7797L21.6533 30.8599ZM27.042 21.5966H16.2916V24.5966H27.042V21.5966ZM16.1699 21.6015C15.7322 21.6372 15.4424 21.5889 15.2843 21.5354C15.125 21.4815 15.1743 21.4522 15.2412 21.5658C15.2744 21.6222 15.2922 21.6836 15.2967 21.7355C15.3009 21.7839 15.2913 21.7968 15.3013 21.7645C15.325 21.6871 15.4269 21.4642 15.764 21.1247L13.6349 19.0111C12.6038 20.0498 11.7872 21.6117 12.6558 23.0875C13.4349 24.4112 15.0688 24.7011 16.4134 24.5916L16.1699 21.6015ZM15.7652 21.1235L26.7341 10.0481L24.6025 7.93708L13.6337 19.0124L15.7652 21.1235ZM26.8307 9.94067C26.9288 9.8204 27.0668 9.74596 27.2252 9.73009L26.9261 6.74504C25.9838 6.83945 25.1136 7.29948 24.5059 8.04454L26.8307 9.94067Z" fill="#F0D37A" mask="url(#path-1-inside-1_6092_46546)"/>
<mask id="path-3-inside-2_6092_46546" fill="white">
<path fill-rule="evenodd" clip-rule="evenodd" d="M26.9788 15.4658C25.2018 15.4743 23.7692 16.9335 23.7734 18.7278C23.7818 20.522 25.227 21.9685 27.004 21.9642C28.7811 21.9558 30.2136 20.4966 30.2094 18.7023C30.201 16.9165 28.7727 15.4743 27.004 15.4658"/>
</mask>
<path fill-rule="evenodd" clip-rule="evenodd" d="M26.9788 15.4658C25.2018 15.4743 23.7692 16.9335 23.7734 18.7278C23.7818 20.522 25.227 21.9685 27.004 21.9642C28.7811 21.9558 30.2136 20.4966 30.2094 18.7023C30.201 16.9165 28.7727 15.4743 27.004 15.4658" fill="#EDCF77"/>
<path d="M23.7734 18.7278L22.2734 18.7313L22.2735 18.7348L23.7734 18.7278ZM27.004 21.9642L27.0076 23.4642L27.0112 23.4642L27.004 21.9642ZM30.2094 18.7023L31.7094 18.6988L31.7094 18.6953L30.2094 18.7023ZM26.9717 13.9658C24.3526 13.9783 22.2673 16.1251 22.2735 18.7313L25.2734 18.7242C25.2711 17.7419 26.051 16.9703 26.986 16.9658L26.9717 13.9658ZM22.2735 18.7348C22.2857 21.344 24.3914 23.4705 27.0076 23.4642L27.0005 20.4643C26.0626 20.4665 25.278 19.7001 25.2734 18.7207L22.2735 18.7348ZM27.0112 23.4642C29.6302 23.4517 31.7155 21.305 31.7094 18.6988L28.7094 18.7058C28.7117 19.6882 27.9319 20.4598 26.9969 20.4643L27.0112 23.4642ZM31.7094 18.6953C31.6972 16.1001 29.6161 13.9783 27.0112 13.9658L26.9968 16.9658C27.9292 16.9703 28.7048 17.7329 28.7094 18.7094L31.7094 18.6953Z" fill="#F0D37A" mask="url(#path-3-inside-2_6092_46546)"/>
<path d="M50.2765 35.3476C49.5152 36.0597 48.7087 36.2824 47.1416 36.3278H27H6.85424C5.28941 36.2824 4.48401 36.0598 3.72309 35.3478C3.38184 35.0285 3.04239 34.6049 2.66848 34.0337C3.01779 34.2815 3.34128 34.482 3.65157 34.6429C4.77494 35.2253 5.69171 35.27 6.84347 35.27H47.1523C48.3056 35.27 49.2304 35.2254 50.3577 34.6435C50.6625 34.4862 50.9795 34.291 51.3202 34.0508C50.9507 34.6133 50.6145 35.0315 50.2765 35.3476Z" fill="#B493DA" stroke="#F0D37A" stroke-width="1.5"/>
</svg>