<svg width="55" height="41" viewBox="0 0 55 41" fill="none" xmlns="http://www.w3.org/2000/svg">
<path d="M45.4888 22.8068L45.096 21.25L36.2502 21.6151L23.096 21.25L21.5246 23.9744L19.5603 26.3095L17.2031 26.6987V29.4231L17.596 31.369L18.7746 31.7582L20.7388 32.5366L21.5246 34.0934L22.7031 36.4286H45.096L45.8817 34.0934L47.4531 32.5366L50.2031 31.369L50.596 27.0879L49.4174 26.6987L46.6674 25.1419L45.4888 22.8068Z" fill="#4D2753"/>
<path d="M39.4567 16.7277L39.6407 16.5982L32.8756 7.07652C30.4531 3.66525 26.5084 1.62845 22.3299 1.62845H6.24283V0H0V1.49399H4.75052V20.5921H0V22.0861H6.24283V20.617H8.40668L9.36176 21.6479C10.2969 22.6588 11.5654 23.2913 12.9184 23.4456V41H54.6484V16.7277H39.4567ZM10.4561 20.627L9.05832 19.1181H6.24283V3.12243H22.3299C26.0309 3.12243 29.5179 4.92518 31.6618 7.94303L37.9047 16.7277H32.4279L28.2594 10.8165L27.0407 11.678L31.6022 18.142C31.7514 18.3511 31.8111 18.6001 31.7713 18.8541C31.7315 19.1081 31.5972 19.3272 31.3883 19.4766C30.5028 20.119 29.4234 20.378 28.3439 20.2087C27.2645 20.0394 26.3194 19.4567 25.6727 18.5653L19.7831 10.5525L19.2508 10.7567C17.853 11.2896 16.3358 11.2248 14.9878 10.5725C13.6397 9.92008 12.6448 8.77469 12.1922 7.34544L12.0927 7.0317L10.67 7.48488L10.7695 7.79861C11.3465 9.62626 12.615 11.0904 14.3361 11.922C15.8832 12.669 17.6043 12.8134 19.2359 12.3403L22.4642 16.7327H12.9135V21.9317C11.9833 21.7823 11.1078 21.3292 10.4561 20.627ZM53.1611 39.4961H14.4157V18.2217H23.5735L24.4789 19.4517C25.3543 20.6569 26.6477 21.4537 28.1201 21.6877C28.4186 21.7325 28.712 21.7574 29.0055 21.7574C30.1745 21.7574 31.3087 21.3889 32.2687 20.6917C32.796 20.3083 33.1442 19.7406 33.2487 19.0932C33.2934 18.7993 33.2835 18.5055 33.2238 18.2266H53.1611V39.4961Z" fill="#F0D37A"/>
<path d="M28.668 28.859C28.668 31.6878 30.9663 33.9837 33.7869 33.9837C36.6125 33.9837 38.9058 31.6828 38.9058 28.859C38.9058 26.0352 36.6125 23.7344 33.7869 23.7344C30.9663 23.7344 28.668 26.0303 28.668 28.859ZM33.7869 25.2284C35.7867 25.2284 37.4134 26.857 37.4134 28.859C37.4134 30.8611 35.7867 32.4896 33.7869 32.4896C31.7871 32.4896 30.1604 30.8611 30.1604 28.859C30.1604 26.857 31.7871 25.2284 33.7869 25.2284Z" fill="#F0D37A"/>
<path d="M46.1665 25.2234C47.1215 26.1796 48.3403 26.7722 49.6634 26.9315V30.781C48.3403 30.9454 47.1215 31.538 46.1665 32.4892C45.2114 33.4453 44.6194 34.6654 44.4602 35.9901H23.1202C22.9561 34.6654 22.3641 33.4453 21.414 32.4892C20.4589 31.533 19.2402 30.9404 17.917 30.781V26.9315C19.2402 26.7672 20.4589 26.1746 21.414 25.2234C22.5432 24.093 23.17 22.584 23.17 20.9755H21.6776C21.6776 22.1807 21.2101 23.3161 20.3594 24.1627C19.5088 25.0143 18.3796 25.4824 17.1758 25.4824H16.4297V32.2302H17.1758C18.3796 32.2302 19.5138 32.6983 20.3594 33.5499C21.2101 34.4015 21.6776 35.5319 21.6776 36.7371V37.4841H45.9128V36.7371C45.9128 35.5319 46.3804 34.3965 47.231 33.5499C48.0816 32.6983 49.2108 32.2302 50.4146 32.2302H51.1607V25.4824H50.4146C49.2108 25.4824 48.0766 25.0143 47.231 24.1627C46.3804 23.3111 45.9128 22.1807 45.9128 20.9755V20.2285H35.5362V21.7225H44.4602C44.6194 23.0472 45.2114 24.2673 46.1665 25.2234Z" fill="#F0D37A"/>
</svg>