<svg width="45" height="45" viewBox="0 0 45 45" fill="none" xmlns="http://www.w3.org/2000/svg">
<g clip-path="url(#clip0_6092_46592)">
<path d="M23.8373 28.5719C24.1731 29.0286 24.6845 29.2946 25.241 29.2946H36.0795C36.641 29.2946 37.1524 29.0336 37.4832 28.5719C37.8191 28.1102 37.9194 27.503 37.7439 26.9509L35.7637 20.7579C35.5281 20.0201 34.8613 19.5233 34.0993 19.5233H29.5573C29.6025 19.2473 29.5824 18.9612 29.4922 18.6902L27.5119 12.4972C27.2763 11.7594 26.6046 11.2676 25.8476 11.2676H18.9744C18.2124 11.2676 17.5457 11.7644 17.31 12.4972L15.3248 18.6902C15.2396 18.9612 15.2195 19.2473 15.2596 19.5233H11.6351C10.8731 19.5233 10.2063 20.0201 9.97069 20.7529L7.99046 26.9459C7.815 27.4979 7.91025 28.1002 8.25115 28.5669C8.58704 29.0236 9.09839 29.2896 9.65485 29.2896H20.4934C21.0549 29.2896 21.5663 29.0286 21.8971 28.5669C22.233 28.1052 22.3333 27.4979 22.1578 26.9459L20.2628 21.0239H25.4716L23.5766 26.9459C23.4011 27.503 23.5014 28.1052 23.8373 28.5719ZM16.8037 19.4229C16.7786 19.3878 16.7185 19.2874 16.7636 19.1519L18.7438 12.9538C18.7789 12.8434 18.8742 12.7682 18.9744 12.7682H25.8476C25.9528 12.7682 26.0431 12.8434 26.0782 12.9538L28.0584 19.1519C28.1035 19.2874 28.0434 19.3878 28.0183 19.4229C27.9832 19.4681 27.923 19.5233 27.8278 19.5233H27.2262H18.5132H16.9942C16.8939 19.5233 16.8338 19.4681 16.8037 19.4229ZM18.7438 21.2146L20.724 27.4126C20.7692 27.5481 20.709 27.6485 20.6839 27.6836C20.6488 27.7288 20.5887 27.784 20.4934 27.784H9.65485C9.5596 27.784 9.49944 27.7288 9.46435 27.6836C9.43929 27.6485 9.37913 27.5481 9.42425 27.4126L11.4045 21.2146C11.4396 21.1042 11.5348 21.0289 11.6351 21.0289H16.9892H18.5082C18.6135 21.0289 18.7087 21.1042 18.7438 21.2146ZM25.0104 27.4126L26.9906 21.2146C27.0257 21.1042 27.1209 21.0289 27.2212 21.0289H27.8228H34.0943C34.1996 21.0289 34.2898 21.1042 34.3249 21.2146L36.3051 27.4126C36.3503 27.5481 36.2901 27.6485 36.265 27.6836C36.2299 27.7288 36.1698 27.784 36.0745 27.784H25.246C25.1507 27.784 25.0906 27.7288 25.0555 27.6836C25.0254 27.6485 24.9702 27.5481 25.0104 27.4126Z" fill="#F0D37A"/>
<path d="M7.81465 7.74065C15.9169 -0.343348 29.1233 -0.326447 37.2538 7.78572L38.75 9.27859H34.8768V10.9686H41.9175V3.94371H40.2237V8.36597L38.4508 6.59143C29.6597 -2.17985 15.3805 -2.19675 6.61766 6.54636C0.000341384 13.1488 -1.8629 23.227 1.9765 31.6321L3.51791 30.9336C-0.0278893 23.165 1.69419 13.8473 7.81465 7.74065Z" fill="#F0D37A"/>
<path d="M43.0237 13.3799L41.4823 14.0784C45.0338 21.847 43.306 31.1647 37.1856 37.2713C33.2784 41.1697 28.0727 43.316 22.5168 43.3104C22.4999 43.3104 22.4886 43.3104 22.4717 43.3104C16.9045 43.2991 11.6762 41.1359 7.75209 37.2206L6.22198 35.694H10.0953V34.0039H3.04883V41.0289H4.74268V36.6179L6.54946 38.4206C10.7897 42.6513 16.4416 44.9892 22.466 45.0061C22.483 45.0061 22.4999 45.0061 22.5168 45.0061C28.5244 45.0061 34.1592 42.6851 38.3882 38.4713C44.9999 31.8632 46.8631 21.7794 43.0237 13.3799Z" fill="#F0D37A"/>
</g>
<defs>
<clipPath id="clip0_6092_46592">
<rect width="45" height="45" fill="white"/>
</clipPath>
</defs>
</svg>