<svg width="32" height="45" viewBox="0 0 32 45" fill="none" xmlns="http://www.w3.org/2000/svg">
<path d="M19.8279 6.81845L16.4095 6.13477L12.3074 6.81845L10.5982 8.18582L8.20526 10.5787L7.17973 12.9716L6.83789 16.0482L7.52158 19.4666L9.91447 22.2014L12.3074 23.9106L16.4095 24.9361L18.4605 24.2524L21.1953 23.2269L23.2463 21.5177L24.2719 19.1248L25.2974 17.0737V14.339L24.2719 11.6042L22.5627 8.86951L19.8279 6.81845Z" fill="#4D2753"/>
<path d="M29.9561 18.7095L30.7093 18.0986C31.5315 17.4372 32 16.4497 32 15.3933C32 14.3369 31.5269 13.3494 30.7093 12.688L29.9561 12.0771C29.3039 11.5489 29.0191 10.6808 29.2396 9.87242L29.4922 8.93543C29.7678 7.91576 29.5703 6.84098 28.9456 5.98667C28.3255 5.13236 27.3656 4.61334 26.3092 4.55822L25.34 4.5077C24.4995 4.46636 23.7646 3.92897 23.4661 3.14355L23.1216 2.23872C22.7449 1.2512 21.9503 0.497938 20.949 0.17183C19.9432 -0.154279 18.8592 -0.0118936 17.9773 0.562242L17.1643 1.09045C16.457 1.54975 15.5476 1.54975 14.8448 1.09045L14.0319 0.562242C13.1454 -0.0118936 12.0614 -0.154279 11.0601 0.17183C10.0543 0.497938 9.26425 1.2512 8.88761 2.23872L8.54313 3.14355C8.24458 3.92897 7.5051 4.46177 6.66916 4.5077L5.70001 4.55822C4.64361 4.61334 3.68365 5.13236 3.06359 5.98667C2.44352 6.84098 2.24602 7.91576 2.51701 8.93543L2.76963 9.87242C2.9901 10.6854 2.70533 11.5489 2.05311 12.0771L1.29984 12.688C0.473087 13.354 0 14.3415 0 15.3979C0 16.4543 0.473087 17.4418 1.29066 18.1032L2.04392 18.7141C2.69614 19.2423 2.98091 20.1104 2.76044 20.9188L2.50782 21.8558C2.23224 22.8754 2.42974 23.9502 3.0544 24.8045C3.67447 25.6588 4.63442 26.1779 5.69083 26.233L6.65997 26.2835C6.7748 26.2881 6.88503 26.3065 6.99067 26.3294L1.30444 38.5241L7.46376 37.881L10.9315 43.0161L15.5568 33.095L21.1649 44.5961L24.5408 39.4013L30.7093 39.9387L24.2331 26.6601C24.5546 26.4351 24.9312 26.2973 25.34 26.2789L26.3092 26.2284C27.3656 26.1733 28.3255 25.6542 28.9456 24.7999C29.5657 23.9456 29.7632 22.8708 29.4922 21.8512L29.2396 20.9142C29.0191 20.1058 29.3039 19.2377 29.9561 18.7095ZM10.7111 40.2786L8.12976 36.4526L3.54127 36.9303L8.16191 27.023C8.31807 27.2067 8.44668 27.4134 8.53854 27.643L8.88302 28.5479C9.25965 29.5354 10.0543 30.2887 11.0555 30.6148C12.0477 30.9363 13.15 30.7939 14.0273 30.2244L14.8402 29.6962C15.1342 29.5032 15.4649 29.3976 15.8002 29.3655L10.7111 40.2786ZM28.4495 38.3817L23.8519 37.9821L21.3349 41.854L16.2917 31.515L17.146 29.6824C17.1506 29.687 17.1552 29.687 17.1598 29.6916L17.9727 30.2198C18.5469 30.5918 19.2037 30.7847 19.8651 30.7847C20.2279 30.7847 20.5908 30.7296 20.9445 30.6148C21.9503 30.2887 22.7403 29.5354 23.117 28.5479L23.3512 27.937L28.4495 38.3817ZM29.1064 17.6577C28.0362 18.5212 27.5769 19.9405 27.9351 21.2679L28.1877 22.2048C28.3577 22.8295 28.2337 23.4863 27.857 24.0053C27.4758 24.5289 26.8925 24.8459 26.2449 24.878L25.2757 24.9285C23.9024 24.9974 22.699 25.8747 22.2076 27.1608L21.8631 28.0656C21.6334 28.6673 21.1465 29.1266 20.5357 29.3287C19.9248 29.5262 19.2588 29.4389 18.7214 29.0899L17.9084 28.5617C16.7785 27.8268 15.2444 27.8268 14.1145 28.5617L13.3016 29.0899C12.7596 29.4435 12.0982 29.5308 11.4873 29.3287C10.8718 29.1312 10.3896 28.6673 10.1599 28.0656L9.81542 27.1608C9.32396 25.8747 8.12057 25.002 6.74724 24.9285L5.7781 24.878C5.13507 24.8459 4.54715 24.5243 4.16593 24.0053C3.7847 23.4817 3.66528 22.8249 3.83522 22.2048L4.08784 21.2679C4.4461 19.9405 3.9822 18.5212 2.91661 17.6577L2.16334 17.0468C1.6627 16.6426 1.37333 16.0409 1.37333 15.3933C1.37333 14.7503 1.6627 14.144 2.16334 13.7398L2.91661 13.1289C3.98679 12.2654 4.4461 10.8462 4.08784 9.51875L3.83522 8.58176C3.66528 7.9571 3.78929 7.30029 4.16593 6.78127C4.54715 6.25766 5.13047 5.94074 5.7781 5.90859L6.74724 5.85806C8.12057 5.78917 9.32396 4.91189 9.81542 3.62583L10.1599 2.72099C10.3896 2.1193 10.8764 1.65999 11.4873 1.45789C11.7032 1.389 11.9282 1.35225 12.1487 1.35225C12.5529 1.35225 12.9571 1.46708 13.3062 1.69673L14.1191 2.22494C15.272 2.97361 16.7602 2.97361 17.913 2.22494L18.726 1.69673C19.268 1.34307 19.9294 1.2558 20.5449 1.45789C21.1603 1.6554 21.6426 2.1193 21.8723 2.72099L22.2167 3.62583C22.7082 4.91189 23.9116 5.78458 25.2849 5.85806L26.2541 5.90859C26.8971 5.94074 27.485 6.26226 27.8662 6.78127C28.2475 7.30489 28.3669 7.9617 28.1969 8.58176L27.9443 9.51875C27.5861 10.8462 28.0454 12.2608 29.1155 13.1289L29.8688 13.7398C30.3695 14.144 30.6588 14.7503 30.6588 15.3933C30.6588 16.0363 30.3695 16.6426 29.8688 17.0468L29.1064 17.6577Z" fill="#F0D37A"/>
<path d="M16.0014 5.44922C10.5172 5.44922 6.05273 9.9091 6.05273 15.3978C6.05273 20.8866 10.5126 25.3419 16.0014 25.3419C21.4901 25.3419 25.95 20.882 25.95 15.3978C25.95 9.91369 21.4855 5.44922 16.0014 5.44922ZM16.0014 23.9226C11.3026 23.9226 7.47659 20.0966 7.47659 15.3978C7.47659 10.6991 11.3026 6.87307 16.0014 6.87307C20.7001 6.87307 24.5261 10.6945 24.5261 15.3978C24.5261 20.0966 20.7001 23.9226 16.0014 23.9226Z" fill="#F0D37A"/>
</svg>