<svg width="46" height="36" viewBox="0 0 46 36" fill="none" xmlns="http://www.w3.org/2000/svg">
<path d="M44.3907 18.6104H27.2578V33.7963H44.7801V18.9997L44.3907 18.6104Z" fill="#4D2753"/>
<path d="M1.59073 25.8993V11.8889V11.6504V8.2721H27.9611V6.65566H1.59073V2.45294C1.59073 1.99225 1.96057 1.61643 2.41393 1.61643H38.2332C38.6866 1.61643 39.0564 1.99225 39.0564 2.45294V4.27547H40.6471V2.45294C40.6471 1.09917 39.5654 0 38.2332 0H2.41393C1.0817 0 0 1.09917 0 2.45294V7.45984V8.26806V11.0766V11.8848V25.8993C0 27.4834 1.26861 28.7685 2.82355 28.7685H24.2666V27.152H2.82355C2.14351 27.152 1.59073 26.5903 1.59073 25.8993Z" fill="#F0D37A"/>
<path d="M44.2733 17.5956H43.8598V13.405C43.8598 9.10936 40.2886 5.48047 36.0612 5.48047C31.7623 5.48047 28.2626 9.03662 28.2626 13.405V17.5956H27.8491C26.8946 17.5956 26.1191 18.3836 26.1191 19.3535V33.3357C26.1191 34.3055 26.8946 35.0935 27.8491 35.0935H44.2694C45.2238 35.0935 45.9993 34.3055 45.9993 33.3357V19.3535C45.9993 18.3836 45.2238 17.5956 44.2733 17.5956ZM29.8534 13.405C29.8534 9.92566 32.6372 7.0969 36.0612 7.0969C39.4256 7.0969 42.269 9.98628 42.269 13.405V17.5956H39.8829V13.405C39.8829 11.336 38.0973 9.52155 36.0612 9.52155C33.9535 9.52155 32.2395 11.2633 32.2395 13.405V17.5956H29.8534V13.405ZM38.2922 17.5956H33.8302V13.405C33.8302 12.1563 34.8324 11.138 36.0612 11.138C37.2304 11.138 38.2922 12.217 38.2922 13.405V17.5956ZM44.4086 33.3316C44.4086 33.4084 44.3449 33.4731 44.2694 33.4731H27.853C27.7775 33.4731 27.7138 33.4084 27.7138 33.3316V19.3495C27.7138 19.2727 27.7775 19.208 27.853 19.208H44.2733C44.3489 19.208 44.4125 19.2727 44.4125 19.3495V33.3316H44.4086Z" fill="#F0D37A"/>
<path d="M36.8564 23.6367H35.2656V29.6418H36.8564V23.6367Z" fill="#F0D37A"/>
</svg>